<svg width="24" height="24" viewBox="0 0 24 24" fill="none" xmlns="http://www.w3.org/2000/svg">
<path d="M5.26852 9.75C5.26732 8.8605 5.44212 7.9796 5.78292 7.158C6.12382 6.3363 6.62382 5.5903 7.25432 4.9629C7.88482 4.3354 8.63322 3.8389 9.45642 3.5021C10.2797 3.1653 11.1615 2.9947 12.0509 3.0002C15.7625 3.0278 18.7312 6.1128 18.7312 9.8347V10.5C18.7312 13.8577 19.4337 15.8062 20.0524 16.8711C20.1191 16.9849 20.1546 17.1142 20.1553 17.2461C20.156 17.378 20.1219 17.5077 20.0565 17.6222C19.991 17.7367 19.8966 17.8319 19.7826 17.8982C19.6686 17.9646 19.5392 17.9997 19.4073 18H4.59172C4.45982 17.9997 4.33042 17.9645 4.21642 17.8982C4.10242 17.8318 4.00792 17.7366 3.94252 17.6221C3.87712 17.5076 3.84302 17.3778 3.84382 17.2459C3.84452 17.1141 3.88002 16.9847 3.94672 16.8709C4.56572 15.806 5.26852 13.8575 5.26852 10.5V9.75Z" stroke="black"/>
<path d="M9 18V18.75C9 19.5456 9.3161 20.3087 9.8787 20.8713C10.4413 21.4339 11.2044 21.75 12 21.75C12.7956 21.75 13.5587 21.4339 14.1213 20.8713C14.6839 20.3087 15 19.5456 15 18.75V18" stroke="black"/>
</svg>
